<?xml version="1.0" standalone="no"?>
<!DOCTYPE svg PUBLIC "-//W3C//DTD SVG 20010904//EN"
 "http://www.w3.org/TR/2001/REC-SVG-20010904/DTD/svg10.dtd">
<svg version="1.0" xmlns="http://www.w3.org/2000/svg"
 width="500.000000pt" height="500.000000pt" viewBox="0 0 500.000000 500.000000"
 preserveAspectRatio="xMidYMid meet">
<metadata>
Created by Faris Adlin
</metadata>
<g transform="translate(0.000000,500.000000) scale(0.100000,-0.100000)"
fill="#D926AA" stroke="none" stroke-width='4'>
<path d="M1243 4367 l-1243 -622 0 -1245 0 -1245 1250 -625 1250 -625 1250
625 1250 625 0 1245 0 1245 -1245 623 c-685 342 -1251 622 -1258 621 -6 0
-571 -280 -1254 -622z m2417 -147 l1160 -580 0 -1140 0 -1140 -1160 -580
-1160 -580 -1160 580 -1160 580 0 1140 0 1140 1158 579 c636 319 1158 580
1160 580 1 1 524 -260 1162 -579z"/>
<path d="M1200 2500 l0 -920 210 0 210 0 0 370 0 370 300 0 300 0 0 185 0 185
-300 0 -300 0 0 185 0 185 325 0 325 0 0 180 0 180 -535 0 -535 0 0 -920z"/>
<path d="M3011 3398 c-5 -13 -169 -421 -366 -907 -196 -486 -359 -890 -362
-897 -4 -12 35 -14 218 -14 l224 0 39 108 c22 59 52 142 69 185 l29 77 353 0
353 0 68 -185 68 -185 224 0 c175 0 223 3 219 13 -3 6 -168 415 -367 907 -199
492 -364 901 -367 908 -4 9 -53 12 -199 12 -192 0 -195 0 -203 -22z m313 -815
c53 -139 96 -255 96 -258 0 -3 -92 -5 -205 -5 -113 0 -205 4 -205 8 0 4 29 84
65 177 36 94 82 212 102 264 23 59 39 88 43 80 4 -8 51 -127 104 -266z"/>
</g>
</svg>
